<?xml version="1.0" encoding="iso-8859-1"?>
<!-- Generator: Adobe Illustrator 16.0.0, SVG Export Plug-In . SVG Version: 6.00 Build 0)  -->
<!DOCTYPE svg PUBLIC "-//W3C//DTD SVG 1.1//EN" "http://www.w3.org/Graphics/SVG/1.1/DTD/svg11.dtd">
<svg xmlns="http://www.w3.org/2000/svg" xmlns:xlink="http://www.w3.org/1999/xlink" version="1.1" id="Capa_1" x="0px" y="0px" width="512px" height="512px" viewBox="0 0 792 792" style="enable-background:new 0 0 792 792;" xml:space="preserve">
<g>
	<path d="M499.65,792h-313.2c-39.1,0-71-31.8-71-71V71c0-39.1,31.8-71,71-71h419.1c39.101,0,71,31.8,71,71v523.5   c0,21.9-18.1,30.8-27.699,32.4c-0.4,0.1-0.7,0.1-1.101,0.1h-83.7c-31.899,0-57.899,26-57.899,57.9V711.6c0,3.601-2.9,6.5-6.5,6.5   c-3.601,0-6.5-2.899-6.5-6.5V684.9c0-39.101,31.8-71,71-71h83c3-0.601,16.3-4.4,16.3-19.4V71c0-31.9-26-57.9-57.9-57.9h-419.1   c-31.9,0-57.9,26-57.9,57.9v650c0,31.9,26,57.9,57.9,57.9h311L638.65,672.1c2.899-2.199,7-1.6,9.2,1.301   c2.199,2.899,1.6,7-1.301,9.199l-143,108.101C502.45,791.5,501.05,792,499.65,792z" fill="#131313"/>
</g>
<g>
</g>
<g>
</g>
<g>
</g>
<g>
</g>
<g>
</g>
<g>
</g>
<g>
</g>
<g>
</g>
<g>
</g>
<g>
</g>
<g>
</g>
<g>
</g>
<g>
</g>
<g>
</g>
<g>
</g>
</svg>
